#!OML:ASF G:\ViconDB\ViconDB\414\test\team2\shane.ASF
:FULLY-SPECIFIED
:DEGREES
142
root 4.22787 16.0601 9.61059 -3.61923 8.84177 -5.30172
lowerback 14.7624 -2.70387 -4.42669
upperback 4.74632 -4.06879 2.7964
thorax -2.69875 -2.05746 6.12507
lowerneck -18.6391 -5.33846 -12.3604
upperneck 16.6571 -6.79304 13.686
head 9.22972 -2.58254 5.88521
rclavicle -7.65321e-015 -3.97569e-016
rhumerus -70.3718 24.6815 -89.0627
rradius 59.6208
rwrist 36.685
rhand -44.3149 -12.3784
rfingers 7.12502
rthumb -17.1243 -41.6437
lclavicle -7.65321e-015 -3.97569e-016
lhumerus -25.6385 -25.4755 99.8522
lradius 77.625
lwrist -22.6297
lhand -53.9155 7.25804
lfingers 7.12502
lthumb -26.3425 35.4485
rfemur -19.9395 -17.7598 15.9347
rtibia 90.9831
rfoot -17.7234 -2.23491
rtoes -6.44419
lfemur 6.74408 2.06844 -12.762
ltibia 35.203
lfoot -34.9409 -11.0448
ltoes -14.2713
143
root 4.23615 16.1371 10.1163 -3.67424 9.05798 -5.2005
lowerback 14.7152 -3.13651 -4.58526
upperback 4.47232 -4.65617 3.02061
thorax -2.84925 -2.34137 6.55219
lowerneck -18.1663 -4.99296 -12.6632
upperneck 16.6434 -6.19865 13.3345
head 9.04624 -2.37656 5.89685
rclavicle -7.65321e-015 -3.97569e-016
rhumerus -70.3718 24.6815 -89.0627
rradius 59.6208
rwrist 36.685
rhand -44.3149 -12.3784
rfingers 7.12502
rthumb -17.1243 -41.6437
lclavicle 9.8299e-014 -4.83047e-014
lhumerus -25.8086 -26.0493 100.593
lradius 79.2167
lwrist -22.2202
lhand -54.2944 8.53034
lfingers 7.12502
lthumb -26.7051 36.6661
rfemur -22.4409 -17.4499 16.8188
rtibia 88.8741
rfoot -18.6544 -1.94166
rtoes -6.76054
lfemur 10.1578 0.644452 -12.9218
ltibia 31.8098
lfoot -32.7698 -10.9565
ltoes -17.5889
144
root 4.23326 16.2312 10.6346 -3.64615 9.05562 -5.03969
lowerback 14.3107 -3.40381 -4.66824
upperback 4.33051 -5.00785 3.1165
thorax -2.7144 -2.52065 6.72589
lowerneck -17.9003 -4.74496 -12.6867
upperneck 16.5952 -5.78037 12.9125
head 8.90525 -2.23301 5.80598
rclavicle -7.65321e-015 -3.97569e-016
rhumerus -70.3718 24.6815 -89.0627
rradius 59.6208
rwrist 36.685
rhand -44.3149 -12.3784
rfingers 7.12502
rthumb -17.1243 -41.6437
lclavicle 1.54058e-015 4.37326e-015
lhumerus -25.9612 -26.6648 101.193
lradius 80.6529
lwrist -21.7254
lhand -54.4215 8.28297
lfingers 7.12502
lthumb -26.8268 36.4001
rfemur -24.7844 -16.8292 17.7079
rtibia 86.2377
rfoot -19.2884 -1.37718
rtoes -7.16248
lfemur 13.3218 -0.575345 -13.0924
ltibia 28.5924
lfoot -30.0539 -11.3883
ltoes -20.2582
145
root 4.23213 16.3378 11.1654 -3.56359 8.93982 -5.09201
lowerback 13.5499 -3.6818 -4.53563
upperback 4.27661 -5.33181 3.27932
thorax -2.31007 -2.69947 6.80305
lowerneck -17.588 -4.52073 -12.8229
upperneck 16.3897 -5.3823 12.5992
head 8.71529 -2.09591 5.76554
rclavicle -7.65321e-015 -3.97569e-016
rhumerus -70.3718 24.6815 -89.0627
rradius 59.6208
rwrist 36.685
rhand -44.3149 -12.3784
rfingers 7.12502
rthumb -17.1243 -41.6437
lclavicle 7.83957e-014 -1.92821e-014
lhumerus -26.0974 -26.749 101.738
lradius 81.7677
lwrist -22.1995
lhand -54.6788 8.151
lfingers 7.12502
lthumb -27.0729 36.2301
rfemur -26.8261 -16.1697 18.8275
rtibia 82.9243
rfoot -19.5246 -0.646555
rtoes -7.15738
lfemur 16.3635 -1.60568 -12.973
ltibia 25.2729
lfoot -26.5427 -12.4309
ltoes -23.6821
146
root 4.22799 16.4097 11.6923 -3.38553 8.73846 -5.10163
lowerback 12.6438 -3.93239 -4.47358
upperback 4.18181 -5.6315 3.35248
thorax -1.8748 -2.86574 6.80307
lowerneck -17.4996 -4.15444 -12.4049
upperneck 16.5735 -4.86388 11.9048
head 8.65625 -1.89611 5.52014
rclavicle -7.65321e-015 -3.97569e-016
rhumerus -70.3718 24.6815 -89.0627
rradius 59.6208
rwrist 36.685
rhand -44.3149 -12.3784
rfingers 7.12502
rthumb -17.1243 -41.6437
lclavicle 1.04039e-013 -4.08502e-014
lhumerus -26.5468 -26.6047 102.129
lradius 82.8911
lwrist -22.6401
lhand -54.685 7.59457
lfingers 7.12502
lthumb -27.0788 35.6727
rfemur -28.8854 -15.3693 19.799
rtibia 79.2723
rfoot -19.4826 0.511874
rtoes -7.16297
lfemur 19.1512 -2.34607 -12.7456
ltibia 22
lfoot -22.3449 -14.2092
ltoes -26.7222
147
root 4.22483 16.549 12.2462 -3.30534 8.29839 -5.34428
lowerback 12.0586 -4.07905 -4.0677
upperback 3.85599 -5.76142 3.4851
thorax -1.90931 -2.92126 6.6926
lowerneck -16.8688 -3.92328 -12.554
upperneck 16.6117 -4.54881 11.7529
head 8.51171 -1.79126 5.53385
rclavicle 2.85753e-015 5.46658e-015
rhumerus -77.5138 23.1674 -88.5086
rradius 65.1254
rwrist 32.4643
rhand -43.9834 -13.3663
rfingers 7.12502
rthumb -16.8052 -42.6591
lclavicle 2.85753e-015 5.46658e-015
lhumerus -27.6407 -25.9224 103.04
lradius 84.0243
lwrist -23.3785
lhand -54.6532 7.67945
lfingers 7.12502
lthumb -27.0484 35.7623
rfemur -29.9697 -14.155 21.0767
rtibia 74.7029
rfoot -19.0274 1.22915
rtoes -8.27063
lfemur 22.0647 -2.88058 -12.3322
ltibia 18.5117
lfoot -17.2867 -15.7539
ltoes -29.2774
148
root 4.21546 16.6709 12.7948 -3.29637 7.81469 -5.47025
lowerback 11.6073 -4.17156 -3.80752
upperback 3.55318 -5.8453 3.50802
thorax -1.99506 -2.95269 6.55367
lowerneck -16.4019 -3.68923 -12.4539
upperneck 16.9572 -4.27799 11.4974
head 8.49757 -1.69705 5.47006
rclavicle 1.03082e-013 -1.25234e-014
rhumerus -78.7227 22.492 -88.6652
rradius 66.3281
rwrist 31.4696
rhand -43.4078 -13.4337
rfingers 7.12502
rthumb -16.251 -42.7727
lclavicle 1.03082e-013 -1.25234e-014
lhumerus -28.8395 -25.4167 103.691
lradius 84.9393
lwrist -23.7865
lhand -54.8316 7.48369
lfingers 7.12502
lthumb -27.219 35.54
rfemur -30.8145 -13.171 21.9841
rtibia 69.8019
rfoot -18.1335 2.74542
rtoes -9.21047
lfemur 24.8762 -2.77619 -11.6217
ltibia 15.1543
lfoot -11.3007 -18.0345
ltoes -29.989
